<?xml version="1.0" encoding="UTF-8"?>
<svg xmlns="http://www.w3.org/2000/svg" xmlns:xlink="http://www.w3.org/1999/xlink" width="736pt" height="184pt" viewBox="0 0 736 184" version="1.1">
<g id="surface1">
<path style=" stroke:none;fill-rule:evenodd;fill:rgb(63.499451%,16.899109%,23.098755%);fill-opacity:1;" d="M 0.0898438 0.875 L 735.910156 0.875 L 735.910156 183.125 L 0.0898438 183.125 L 0.0898438 0.875 "/>
<path style=" stroke:none;fill-rule:evenodd;fill:rgb(97.599792%,75.299072%,14.099121%);fill-opacity:1;" d="M 110.964844 44.117188 C 119.304688 44.117188 127.644531 44.113281 135.988281 44.117188 C 135.992188 76.566406 135.992188 109.007813 135.988281 141.453125 C 127.644531 141.457031 119.304688 141.453125 110.964844 141.453125 C 110.960938 133.472656 110.96875 125.496094 110.960938 117.519531 C 100.210938 121.445313 88.617188 124.210938 77.140625 122.40625 C 66.378906 120.8125 56.644531 114.925781 49.15625 107.191406 C 44.558594 102.304688 41.445313 96.105469 40.0625 89.546875 C 38.621094 82.972656 38.609375 76.179688 39.175781 69.5 C 39.425781 66.386719 38.96875 63.273438 38.527344 60.199219 C 37.734375 55.246094 36.558594 50.324219 34.601563 45.691406 C 42.019531 45.703125 49.433594 45.683594 56.847656 45.703125 C 58.628906 48.761719 59.914063 52.121094 60.492188 55.621094 C 62.042969 64.324219 60.179688 73.222656 61.703125 81.921875 C 62.613281 87.238281 65.414063 92.265625 69.679688 95.609375 C 75.316406 99.414063 82.277344 101.636719 89.105469 100.675781 C 101.402344 99.085938 111.585938 87.320313 110.972656 74.863281 C 110.953125 64.617188 110.96875 54.367188 110.964844 44.117188 Z M 81.800781 55.433594 C 86.878906 54.378906 92.347656 55.246094 96.800781 57.910156 C 102.238281 61.097656 106.113281 66.820313 106.960938 73.078125 C 107.722656 78.347656 106.382813 83.890625 103.261719 88.207031 C 99.726563 93.21875 93.914063 96.558594 87.785156 97 C 82.144531 97.484375 76.363281 95.535156 72.144531 91.769531 C 67.824219 87.984375 65.15625 82.371094 65.039063 76.621094 C 64.847656 71.066406 67.019531 65.5 70.882813 61.507813 C 73.792969 58.433594 77.660156 56.304688 81.800781 55.433594 "/>
<path style=" stroke:none;fill-rule:evenodd;fill:rgb(100%,100%,100%);fill-opacity:1;" d="M 164.816406 53.578125 L 210.023438 53.578125 L 210.023438 83.921875 L 198.050781 83.921875 L 198.050781 59.863281 L 184.078125 59.863281 C 178.199219 64.847656 179.996094 73.828125 189.933594 74.839844 C 191.289063 74.976563 192.765625 74.945313 194.359375 74.726563 L 194.359375 80.449219 C 191.03125 81.023438 187.980469 81.15625 185.234375 80.898438 C 170.167969 79.472656 166.472656 67.683594 173.554688 59.863281 L 164.816406 59.863281 Z M 203.449219 41.417969 C 206.746094 41.417969 209.417969 43.441406 209.417969 45.933594 C 209.417969 48.425781 206.746094 50.445313 203.449219 50.445313 C 200.152344 50.445313 197.480469 48.425781 197.480469 45.933594 C 197.480469 43.441406 200.152344 41.417969 203.449219 41.417969 Z M 648.773438 40.753906 C 652.070313 40.753906 654.742188 42.773438 654.742188 45.269531 C 654.742188 47.761719 652.070313 49.78125 648.773438 49.78125 C 645.476563 49.78125 642.804688 47.761719 642.804688 45.269531 C 642.804688 42.773438 645.476563 40.753906 648.773438 40.753906 Z M 613.269531 42.726563 C 611.3125 44.507813 609.113281 46.496094 607.15625 48.273438 C 615.167969 48.105469 620.671875 49.507813 624.351563 51.644531 L 633.265625 51.644531 C 628.515625 47.128906 620.566406 43.773438 613.269531 42.726563 Z M 621.019531 35.253906 C 619.0625 37.03125 616.863281 39.023438 614.90625 40.800781 C 628.65625 43.34375 634.136719 47.082031 637.746094 51.644531 L 644.535156 51.644531 C 638.054688 42.675781 630.140625 36.6875 621.019531 35.253906 Z M 378.070313 41.96875 C 375.710938 43.839844 374.09375 45.539063 372.082031 47.539063 C 384.441406 47.390625 392.054688 48.902344 396.257813 51.644531 L 404.945313 51.644531 C 397.269531 45.390625 387.550781 43.269531 378.070313 41.96875 Z M 387.09375 33.265625 C 384.738281 35.136719 382.085938 37.226563 379.726563 39.097656 C 397.476563 41.960938 403.796875 46.265625 408.148438 51.535156 L 408.925781 51.644531 L 416.367188 51.644531 C 408.386719 41.582031 398.527344 34.832031 387.09375 33.265625 Z M 661.289063 62.035156 C 662.277344 62.035156 663.238281 62.101563 664.171875 62.226563 L 664.171875 67.148438 L 664.140625 67.148438 C 659.769531 67.148438 656.222656 69.195313 656.222656 71.722656 C 656.222656 74.25 659.769531 76.300781 664.140625 76.300781 L 664.171875 76.300781 L 664.171875 81.222656 C 663.238281 81.347656 662.277344 81.414063 661.289063 81.414063 C 653.296875 81.414063 646.816406 77.074219 646.816406 71.722656 C 646.816406 66.371094 653.296875 62.035156 661.289063 62.035156 Z M 685.476563 62.035156 C 684.492188 62.035156 683.527344 62.101563 682.597656 62.226563 L 682.597656 67.148438 L 682.625 67.148438 C 686.996094 67.148438 690.542969 69.195313 690.542969 71.722656 C 690.542969 74.25 686.996094 76.300781 682.625 76.300781 L 682.597656 76.300781 L 682.597656 81.222656 C 683.527344 81.347656 684.492188 81.414063 685.476563 81.414063 C 693.46875 81.414063 699.949219 77.074219 699.949219 71.722656 C 699.949219 66.371094 693.46875 62.035156 685.476563 62.035156 Z M 229.953125 62.730469 L 258.796875 62.730469 L 258.796875 68.183594 L 252.414063 68.183594 C 254.761719 70.710938 255.738281 73.628906 254.820313 76.449219 C 253.878906 79.332031 251.128906 81.445313 247.375 82.746094 C 241.34375 84.832031 233.128906 84.871094 227.015625 82.835938 C 219.988281 80.5 215.542969 75.410156 215.992188 70.65625 L 226.480469 70.65625 C 226.367188 71.007813 226.308594 71.378906 226.308594 71.761719 C 226.308594 75.300781 230.730469 78.460938 235.367188 78.460938 C 240.015625 78.460938 243.78125 75.871094 243.78125 72.679688 C 243.78125 70.863281 242.5625 69.242188 240.652344 68.183594 L 229.953125 68.183594 Z M 538.992188 61.914063 C 544.257813 61.914063 548.898438 63.875 551.625 66.855469 C 553.519531 65.507813 556 64.4375 558.855469 63.769531 L 558.855469 69.839844 C 556.21875 70.699219 554.546875 71.914063 554.332031 73.363281 C 554.328125 73.375 554.328125 73.386719 554.328125 73.398438 L 547.21875 73.398438 C 547.242188 73.21875 547.253906 73.039063 547.253906 72.855469 C 547.253906 69.910156 544.175781 67.519531 540.378906 67.519531 C 536.582031 67.519531 533.503906 69.910156 533.503906 72.855469 C 533.503906 75.628906 536.234375 77.910156 539.726563 78.164063 C 540.550781 78.296875 541.460938 78.371094 542.410156 78.371094 C 543.652344 78.371094 544.816406 78.246094 545.820313 78.023438 L 545.820313 82.976563 C 543.765625 83.730469 541.445313 84.160156 538.992188 84.160156 C 530.597656 84.160156 523.792969 79.179688 523.792969 73.035156 C 523.792969 66.894531 530.597656 61.914063 538.992188 61.914063 Z M 449.882813 88.519531 C 448.3125 88.78125 446.679688 88.921875 445 88.921875 C 436.769531 88.921875 429.640625 85.5625 426.171875 80.667969 L 437.105469 80.667969 C 440.105469 82.398438 444.207031 83.550781 448.734375 83.714844 C 449.121094 83.730469 449.503906 83.738281 449.882813 83.738281 Z M 499.347656 69.820313 C 499.441406 70.289063 499.488281 70.769531 499.488281 71.253906 C 499.488281 77.023438 492.898438 81.699219 484.773438 81.699219 C 484.730469 81.699219 484.6875 81.695313 484.644531 81.695313 C 484.601563 81.695313 484.558594 81.699219 484.519531 81.699219 C 476.535156 81.699219 470.0625 77.023438 470.0625 71.253906 C 470.0625 70.417969 470.238281 69.621094 470.554688 68.871094 C 472.757813 63.609375 478.1875 62.695313 481.738281 62.695313 L 503.28125 62.695313 L 503.28125 67.246094 L 485.414063 67.246094 L 485.414063 67.261719 C 485.328125 67.261719 485.242188 67.257813 485.152344 67.257813 C 482.324219 67.257813 480.03125 68.988281 480.03125 71.117188 C 480.03125 73.25 482.324219 74.980469 485.152344 74.980469 C 487.980469 74.980469 490.277344 73.25 490.277344 71.117188 C 490.277344 70.664063 490.171875 70.226563 489.980469 69.820313 Z M 391.929688 69.820313 C 392.019531 70.289063 392.066406 70.769531 392.066406 71.253906 C 392.066406 77.023438 385.480469 81.699219 377.355469 81.699219 C 377.3125 81.699219 377.269531 81.695313 377.226563 81.695313 C 377.183594 81.695313 377.140625 81.699219 377.097656 81.699219 C 369.117188 81.699219 362.644531 77.023438 362.644531 71.253906 C 362.644531 70.417969 362.820313 69.621094 363.132813 68.871094 C 365.339844 63.609375 370.769531 62.695313 374.320313 62.695313 L 395.863281 62.695313 L 395.863281 67.246094 L 377.996094 67.246094 L 377.996094 67.261719 C 377.910156 67.261719 377.820313 67.257813 377.734375 67.257813 C 374.90625 67.257813 372.613281 68.988281 372.613281 71.117188 C 372.613281 73.25 374.90625 74.980469 377.734375 74.980469 C 380.5625 74.980469 382.855469 73.25 382.855469 71.117188 C 382.855469 70.664063 382.753906 70.226563 382.558594 69.820313 Z M 627.429688 81.453125 C 616.703125 84.433594 601.136719 81.949219 601.136719 72.449219 C 601.136719 62.953125 616.703125 60.46875 627.429688 63.445313 L 627.429688 68.773438 C 626.425781 68.4375 625.28125 68.179688 624.066406 68.007813 L 624.066406 76.230469 C 625.28125 76.058594 626.425781 75.800781 627.429688 75.460938 Z M 616.75 68.019531 C 613.34375 68.546875 610.675781 69.878906 610.675781 72.117188 C 610.675781 74.359375 613.34375 75.6875 616.75 76.21875 Z M 641.277344 53.578125 L 641.277344 83.921875 L 629.304688 83.921875 L 629.304688 59.863281 L 601.347656 59.863281 L 601.347656 53.578125 Z M 326.8125 81.453125 C 315.207031 84.433594 298.367188 81.949219 298.367188 72.449219 C 298.367188 62.953125 315.207031 60.46875 326.8125 63.445313 L 326.8125 68.773438 C 325.726563 68.4375 324.484375 68.179688 323.171875 68.007813 L 323.171875 76.230469 C 324.484375 76.058594 325.726563 75.800781 326.8125 75.460938 Z M 315.253906 68.019531 C 311.570313 68.546875 308.6875 69.878906 308.6875 72.117188 C 308.6875 74.359375 311.570313 75.6875 315.253906 76.21875 Z M 341.980469 53.578125 L 341.980469 83.921875 L 330.003906 83.921875 L 330.003906 59.863281 L 295.890625 59.863281 L 295.890625 53.578125 Z M 645.371094 53.578125 C 664.046875 53.578125 682.722656 53.578125 701.394531 53.578125 L 701.394531 59.863281 L 679.371094 59.863281 L 679.371094 83.921875 L 667.398438 83.921875 L 667.398438 59.863281 L 645.371094 59.863281 Z M 573.921875 53.578125 L 573.921875 83.921875 L 561.949219 83.921875 L 561.949219 59.863281 L 522.410156 59.863281 L 522.410156 53.578125 Z M 518.992188 53.578125 L 518.992188 83.921875 L 507.019531 83.921875 L 507.019531 59.863281 L 469.242188 59.863281 L 469.242188 53.578125 Z M 414.667969 53.578125 L 466.03125 53.578125 L 466.03125 83.921875 L 454.058594 83.921875 L 454.058594 59.863281 L 447.390625 59.863281 C 450.578125 61.90625 452.589844 64.890625 452.589844 68.210938 C 452.589844 70.679688 451.476563 72.964844 449.589844 74.816406 C 446.402344 77.941406 443.332031 78.160156 438.328125 78.160156 L 414.667969 78.160156 L 414.667969 72.574219 C 421.78125 72.574219 428.621094 72.511719 435.800781 72.511719 C 436.484375 72.511719 437.113281 72.5 437.699219 72.453125 C 440.226563 72.253906 442.246094 71.066406 443.058594 69.253906 C 444.378906 66.3125 441.71875 63.140625 437.308594 62.199219 C 433.5625 61.402344 428.296875 61.335938 426.269531 62.9375 C 425.839844 63.277344 425.636719 63.761719 425.636719 64.265625 C 425.636719 65.414063 427.144531 66.347656 428.394531 66.347656 C 429.644531 66.347656 430.304688 65.859375 430.792969 65.277344 C 433.121094 65.234375 435.855469 65.292969 438.152344 65.25 C 438.113281 71.539063 424.574219 72.179688 419.234375 69.511719 C 416.765625 68.277344 415.207031 66.464844 415.207031 64.441406 C 415.207031 62.671875 416.398438 61.0625 418.351563 59.863281 L 414.667969 59.863281 Z M 410.65625 53.578125 L 410.65625 83.921875 L 398.683594 83.921875 L 398.683594 59.863281 L 362.519531 59.863281 L 362.519531 53.578125 Z M 292.664063 53.578125 L 292.664063 83.921875 L 280.6875 83.921875 L 280.6875 59.863281 L 276.628906 59.863281 L 276.628906 53.578125 Z M 214.914063 53.578125 L 273.019531 53.578125 L 273.019531 83.921875 L 261.046875 83.921875 L 261.046875 59.863281 L 214.914063 59.863281 L 214.914063 53.578125 "/>
<path style=" stroke:none;fill-rule:evenodd;fill:rgb(100%,100%,100%);fill-opacity:1;" d="M 311.511719 96.882813 C 313.714844 96.878906 315.914063 96.882813 318.113281 96.878906 C 318.191406 105.597656 318.242188 114.3125 318.335938 123.03125 C 318.339844 125.714844 320.128906 128.328125 322.835938 129.585938 C 325.453125 130.855469 328.855469 130.722656 331.339844 129.257813 C 334.066406 127.714844 335.609375 124.742188 335.140625 121.917969 C 334.820313 119.359375 332.65625 117.105469 329.878906 116.320313 C 327.457031 115.554688 324.761719 115.941406 322.527344 116.976563 C 322.542969 114.84375 322.53125 112.710938 322.535156 110.578125 C 325.648438 109.75 329.03125 109.625 332.160156 110.472656 C 336.773438 111.636719 340.6875 114.804688 342.273438 118.789063 C 343.683594 122.222656 343.433594 126.125 341.691406 129.421875 C 339.671875 133.300781 335.570313 136.300781 330.8125 137.226563 C 323.9375 138.648438 316.207031 135.519531 313.074219 129.953125 C 311.789063 127.832031 311.515625 125.398438 311.515625 123.03125 C 311.511719 114.316406 311.515625 105.597656 311.511719 96.882813 "/>
<path style=" stroke:none;fill-rule:evenodd;fill:rgb(100%,100%,100%);fill-opacity:1;" d="M 578.9375 96.882813 C 581.136719 96.878906 583.339844 96.878906 585.539063 96.882813 C 585.617188 105.597656 585.671875 114.3125 585.765625 123.03125 C 585.769531 125.730469 587.578125 128.355469 590.3125 129.605469 C 592.949219 130.867188 596.363281 130.710938 598.84375 129.214844 C 601.535156 127.65625 603.042969 124.691406 602.5625 121.890625 C 602.222656 119.277344 599.960938 117 597.101563 116.257813 C 594.726563 115.566406 592.128906 115.984375 589.949219 116.976563 C 589.96875 114.84375 589.953125 112.710938 589.960938 110.578125 C 593.097656 109.742188 596.507813 109.625 599.652344 110.484375 C 604.410156 111.703125 608.398438 115.058594 609.871094 119.222656 C 611.628906 123.929688 610.226563 129.378906 606.414063 133.011719 C 602.828125 136.539063 597.089844 138.28125 591.800781 137.300781 C 585.5625 136.3125 580.019531 131.820313 579.164063 126.207031 C 578.738281 122.792969 579.019531 119.347656 578.9375 115.917969 C 578.9375 109.574219 578.9375 103.226563 578.9375 96.882813 "/>
<path style=" stroke:none;fill-rule:evenodd;fill:rgb(100%,100%,100%);fill-opacity:1;" d="M 678.847656 97.050781 C 681.386719 97.046875 683.929688 97.046875 686.472656 97.046875 C 686.460938 103.855469 686.496094 110.660156 686.453125 117.46875 C 687.851563 114.285156 690.371094 111.402344 693.851563 109.789063 C 696.140625 108.671875 698.796875 108.285156 701.394531 108.421875 C 701.390625 110.558594 701.394531 112.699219 701.390625 114.835938 C 698.570313 115.457031 695.894531 116.859375 694.3125 119.046875 C 692.441406 121.488281 692.277344 124.828125 693.925781 127.394531 C 695.4375 129.882813 698.328125 131.511719 701.394531 132.179688 C 701.390625 134.046875 701.394531 135.914063 701.394531 137.78125 C 698.648438 137.941406 695.839844 137.464844 693.46875 136.222656 C 690.183594 134.582031 687.816406 131.792969 686.453125 128.738281 C 686.492188 131.351563 686.460938 133.964844 686.472656 136.578125 C 683.929688 136.574219 681.386719 136.578125 678.847656 136.574219 C 678.84375 123.402344 678.84375 110.222656 678.847656 97.050781 "/>
<path style=" stroke:none;fill-rule:evenodd;fill:rgb(100%,100%,100%);fill-opacity:1;" d="M 441.222656 97.742188 C 444.253906 96.996094 447.640625 98.984375 448.003906 101.726563 C 448.535156 104.371094 446.105469 107.085938 443.046875 107.246094 C 440.117188 107.550781 437.253906 105.433594 437.070313 102.863281 C 436.769531 100.558594 438.65625 98.261719 441.222656 97.742188 "/>
<path style=" stroke:none;fill-rule:evenodd;fill:rgb(100%,100%,100%);fill-opacity:1;" d="M 548.449219 97.355469 C 550.710938 97.355469 552.976563 97.355469 555.242188 97.355469 C 555.242188 105.203125 555.253906 113.046875 555.234375 120.890625 C 555.273438 123.558594 555.863281 126.46875 558.117188 128.417969 C 560.320313 130.339844 563.5 130.902344 566.464844 131.304688 C 566.449219 133.21875 566.441406 135.132813 566.4375 137.050781 C 562.921875 137.257813 559.21875 137.085938 556.046875 135.605469 C 553.238281 134.320313 551.226563 131.972656 550.121094 129.40625 C 548.703125 126.132813 548.429688 122.585938 548.445313 119.113281 C 548.445313 111.859375 548.445313 104.609375 548.449219 97.355469 "/>
<path style=" stroke:none;fill-rule:evenodd;fill:rgb(100%,100%,100%);fill-opacity:1;" d="M 419.367188 101.488281 C 421.855469 101.488281 424.351563 101.488281 426.84375 101.488281 C 426.84375 104.535156 426.839844 107.582031 426.84375 110.632813 C 429.878906 110.636719 432.914063 110.632813 435.945313 110.636719 C 435.945313 112.738281 435.945313 114.839844 435.945313 116.945313 C 432.914063 116.945313 429.878906 116.941406 426.84375 116.945313 C 427.039063 120.539063 426.210938 124.355469 427.914063 127.753906 C 429.261719 130.347656 432.601563 131.265625 435.507813 131.898438 C 435.496094 133.621094 435.492188 135.339844 435.484375 137.0625 C 431.503906 137.324219 427.082031 136.910156 424.03125 134.417969 C 420.460938 131.527344 419.578125 127.027344 419.398438 122.960938 C 419.328125 115.804688 419.386719 108.648438 419.367188 101.488281 "/>
<path style=" stroke:none;fill-rule:evenodd;fill:rgb(100%,100%,100%);fill-opacity:1;" d="M 167.390625 117.253906 C 170.132813 111.742188 177.332031 108.390625 184.074219 109.230469 C 188.480469 109.726563 192.535156 112 195.003906 115.226563 C 198.21875 119.320313 198.734375 124.945313 196.148438 129.390625 C 193.566406 133.960938 187.832031 136.890625 182.046875 136.777344 C 180.382813 136.777344 178.746094 136.46875 177.148438 136.089844 C 177.144531 133.957031 177.152344 131.824219 177.144531 129.6875 C 178.992188 130.507813 181.097656 130.992188 183.175781 130.640625 C 185.921875 130.257813 188.425781 128.554688 189.34375 126.226563 C 190.523438 123.386719 189.496094 119.984375 186.875 118.023438 C 184.480469 116.132813 180.785156 115.664063 177.878906 116.890625 C 174.90625 118.078125 172.917969 120.855469 172.949219 123.714844 C 172.855469 132.402344 172.800781 141.09375 172.71875 149.789063 C 170.519531 149.785156 168.320313 149.789063 166.128906 149.785156 C 166.121094 141.335938 166.128906 132.886719 166.121094 124.441406 C 166.113281 122.011719 166.191406 119.492188 167.390625 117.253906 "/>
<path style=" stroke:none;fill-rule:evenodd;fill:rgb(100%,100%,100%);fill-opacity:1;" d="M 234.683594 113.53125 C 239.566406 108.742188 248.851563 108.113281 254.464844 112.277344 C 257.460938 114.449219 258.929688 117.890625 258.980469 121.242188 C 259.019531 126.351563 258.984375 131.464844 258.996094 136.574219 C 256.667969 136.578125 254.335938 136.574219 252.007813 136.578125 C 252 131.828125 252.019531 127.074219 252 122.324219 C 252.003906 120.710938 251.398438 119.046875 250.027344 117.925781 C 247.1875 115.554688 242.066406 115.957031 239.6875 118.667969 C 238.769531 119.699219 238.378906 121.019531 238.382813 122.308594 C 238.390625 127.066406 238.386719 131.824219 238.386719 136.574219 C 236.0625 136.578125 233.742188 136.578125 231.417969 136.574219 C 231.421875 131.460938 231.421875 126.347656 231.414063 121.230469 C 231.421875 118.4375 232.519531 115.613281 234.683594 113.53125 "/>
<path style=" stroke:none;fill-rule:evenodd;fill:rgb(100%,100%,100%);fill-opacity:1;" d="M 357.328125 113.394531 C 362.046875 108.933594 370.609375 108.210938 376.230469 111.765625 C 378.84375 113.394531 380.582031 115.980469 381.171875 118.726563 C 381.566406 120.371094 381.488281 122.0625 381.496094 123.730469 C 381.492188 128.011719 381.503906 132.292969 381.492188 136.578125 C 379.167969 136.574219 376.84375 136.574219 374.519531 136.578125 C 374.511719 131.941406 374.515625 127.308594 374.519531 122.671875 C 374.554688 121.023438 374.074219 119.28125 372.71875 118.085938 C 369.914063 115.53125 364.570313 115.898438 362.160156 118.710938 C 361.265625 119.734375 360.882813 121.035156 360.890625 122.308594 C 360.890625 127.066406 360.898438 131.824219 360.894531 136.578125 C 358.570313 136.574219 356.246094 136.574219 353.929688 136.578125 C 353.921875 131.460938 353.929688 126.34375 353.921875 121.226563 C 353.925781 118.367188 355.085938 115.488281 357.328125 113.394531 "/>
<path style=" stroke:none;fill-rule:evenodd;fill:rgb(100%,100%,100%);fill-opacity:1;" d="M 486.363281 113.507813 C 491.269531 108.726563 500.566406 108.117188 506.164063 112.308594 C 509.136719 114.492188 510.597656 117.929688 510.636719 121.269531 C 510.671875 126.375 510.640625 131.476563 510.648438 136.574219 C 508.320313 136.578125 505.992188 136.578125 503.671875 136.574219 C 503.664063 131.941406 503.664063 127.300781 503.671875 122.660156 C 503.714844 120.960938 503.175781 119.160156 501.730469 117.964844 C 498.714844 115.375 492.996094 116.027344 490.902344 119.257813 C 490.054688 120.492188 489.992188 121.972656 490.039063 123.367188 C 490.058594 127.773438 490.046875 132.171875 490.050781 136.574219 C 487.722656 136.578125 485.398438 136.574219 483.078125 136.578125 C 483.074219 131.460938 483.078125 126.347656 483.070313 121.234375 C 483.078125 118.429688 484.1875 115.59375 486.363281 113.507813 "/>
<path style=" stroke:none;fill-rule:evenodd;fill:rgb(100%,100%,100%);fill-opacity:1;" d="M 651.09375 113.394531 C 656.011719 108.734375 665.144531 108.160156 670.707031 112.253906 C 673.710938 114.425781 675.191406 117.871094 675.246094 121.230469 C 675.28125 126.34375 675.246094 131.460938 675.257813 136.578125 C 672.929688 136.574219 670.601563 136.574219 668.277344 136.578125 C 668.261719 131.824219 668.285156 127.070313 668.265625 122.316406 C 668.265625 120.695313 667.652344 119.015625 666.261719 117.902344 C 663.265625 115.425781 657.761719 116.03125 655.605469 119.121094 C 654.839844 120.171875 654.617188 121.445313 654.648438 122.675781 C 654.664063 127.308594 654.65625 131.941406 654.652344 136.578125 C 652.328125 136.574219 650.011719 136.574219 647.691406 136.578125 C 647.683594 131.460938 647.691406 126.347656 647.683594 121.230469 C 647.683594 118.371094 648.847656 115.488281 651.09375 113.394531 "/>
<path style=" stroke:none;fill-rule:evenodd;fill:rgb(100%,100%,100%);fill-opacity:1;" d="M 200.15625 110.28125 C 202.480469 110.277344 204.804688 110.277344 207.128906 110.28125 C 207.128906 115 207.128906 119.722656 207.125 124.445313 C 207.097656 125.777344 207.488281 127.144531 208.441406 128.199219 C 210.804688 130.90625 215.886719 131.292969 218.738281 128.960938 C 220.15625 127.824219 220.757813 126.101563 220.746094 124.449219 C 220.757813 119.726563 220.746094 115.003906 220.75 110.28125 C 223.078125 110.277344 225.40625 110.277344 227.730469 110.28125 C 227.722656 115.355469 227.753906 120.433594 227.714844 125.511719 C 227.695313 128.917969 226.199219 132.433594 223.144531 134.632813 C 217.664063 138.628906 208.773438 138.136719 203.804688 133.6875 C 201.039063 131.289063 199.925781 127.773438 200.148438 124.429688 C 200.171875 119.710938 200.148438 114.996094 200.15625 110.28125 "/>
<path style=" stroke:none;fill-rule:evenodd;fill:rgb(100%,100%,100%);fill-opacity:1;" d="M 260.917969 110.351563 C 265.519531 110.347656 270.128906 110.351563 274.738281 110.347656 C 274.734375 118.941406 274.75 127.539063 274.730469 136.128906 C 274.71875 139.652344 273.375 143.210938 270.722656 145.882813 C 267.960938 148.757813 263.816406 150.386719 259.59375 150.734375 C 259.589844 148.816406 259.589844 146.898438 259.59375 144.984375 C 262.078125 144.039063 264.625 142.816406 266.066406 140.722656 C 267.273438 139.042969 267.585938 137.007813 267.554688 135.058594 C 267.546875 128.933594 267.550781 122.808594 267.550781 116.679688 C 265.339844 116.679688 263.125 116.679688 260.914063 116.679688 C 260.914063 114.574219 260.914063 112.460938 260.917969 110.351563 "/>
<path style=" stroke:none;fill-rule:evenodd;fill:rgb(100%,100%,100%);fill-opacity:1;" d="M 277.929688 120.015625 C 279.832031 114.871094 285.371094 110.910156 291.496094 110.289063 C 296.734375 109.683594 302.460938 111.476563 305.53125 115.359375 C 307.394531 117.675781 308.242188 120.539063 308.257813 123.355469 C 308.257813 127.65625 308.253906 131.949219 308.253906 136.246094 C 306.101563 136.246094 303.957031 136.246094 301.808594 136.246094 C 301.796875 131.726563 301.882813 127.199219 301.828125 122.683594 C 301.609375 119.484375 298.261719 117.074219 294.796875 116.6875 C 291.4375 116.179688 287.652344 117.597656 286.152344 120.351563 C 285.082031 122.414063 284.734375 124.890625 285.800781 127.003906 C 286.648438 128.636719 288.277344 130.027344 290.300781 130.457031 C 292.644531 131.082031 295.140625 131.070313 297.550781 130.792969 C 297.546875 132.703125 297.550781 134.609375 297.550781 136.515625 C 293.519531 137.601563 288.945313 137.5625 285.253906 135.617188 C 279.082031 132.761719 275.726563 125.855469 277.929688 120.015625 "/>
<path style=" stroke:none;fill-rule:evenodd;fill:rgb(100%,100%,100%);fill-opacity:1;" d="M 385.136719 120.335938 C 386.804688 115.3125 391.960938 111.390625 397.785156 110.417969 C 403.625 109.410156 410.296875 111.460938 413.378906 116.078125 C 415.53125 119.09375 415.703125 122.75 415.566406 126.203125 C 415.5625 129.546875 415.566406 132.898438 415.5625 136.246094 C 413.410156 136.246094 411.261719 136.246094 409.117188 136.246094 C 409.128906 132.0625 409.136719 127.878906 409.167969 123.695313 C 409.242188 122.238281 408.84375 120.742188 407.820313 119.578125 C 404.949219 116.167969 398.636719 115.542969 395.082031 118.472656 C 393.257813 119.847656 392.578125 122.042969 392.464844 124.074219 C 392.34375 126.625 394.054688 129.21875 396.773438 130.214844 C 399.347656 131.0625 402.160156 131.109375 404.863281 130.796875 C 404.863281 132.707031 404.863281 134.609375 404.863281 136.515625 C 400.777344 137.617188 396.132813 137.554688 392.414063 135.546875 C 386.453125 132.707031 383.167969 126.0625 385.136719 120.335938 "/>
<path style=" stroke:none;fill-rule:evenodd;fill:rgb(100%,100%,100%);fill-opacity:1;" d="M 514.140625 120.804688 C 515.855469 114.824219 522.507813 110.265625 529.53125 110.183594 C 533.789063 110.074219 538.191406 111.480469 541.046875 114.316406 C 543.5625 116.761719 544.710938 120.105469 544.714844 123.359375 C 544.714844 127.65625 544.714844 131.949219 544.710938 136.246094 C 542.5625 136.246094 540.417969 136.246094 538.269531 136.246094 C 538.246094 131.636719 538.378906 127.023438 538.265625 122.417969 C 537.621094 117.703125 530.863281 115.300781 526.261719 117.285156 C 520.925781 119.292969 519.867188 126.789063 524.777344 129.671875 C 527.515625 131.132813 530.925781 131.117188 534.011719 130.796875 C 534.011719 132.707031 534.011719 134.609375 534.011719 136.515625 C 529.964844 137.601563 525.367188 137.5625 521.671875 135.597656 C 515.808594 132.859375 512.488281 126.46875 514.140625 120.804688 "/>
<path style=" stroke:none;fill-rule:evenodd;fill:rgb(100%,100%,100%);fill-opacity:1;" d="M 613.015625 121.046875 C 614.59375 115.042969 621.152344 110.40625 628.148438 110.195313 C 631.976563 110.039063 635.929688 111.074219 638.828125 113.3125 C 641.6875 115.46875 643.277344 118.710938 643.582031 121.96875 C 643.757813 126.726563 643.609375 131.488281 643.65625 136.246094 C 641.503906 136.246094 639.359375 136.246094 637.210938 136.246094 C 637.1875 131.640625 637.316406 127.039063 637.214844 122.4375 C 636.582031 117.714844 629.828125 115.300781 625.222656 117.277344 C 619.859375 119.28125 618.796875 126.8125 623.746094 129.6875 C 626.476563 131.128906 629.871094 131.117188 632.949219 130.792969 C 632.945313 132.703125 632.945313 134.609375 632.949219 136.515625 C 628.996094 137.570313 624.527344 137.574219 620.878906 135.726563 C 614.953125 133.078125 611.492188 126.742188 613.015625 121.046875 "/>
<path style=" stroke:none;fill-rule:evenodd;fill:rgb(100%,100%,100%);fill-opacity:1;" d="M 438.976563 110.554688 C 441.574219 110.550781 444.179688 110.550781 446.777344 110.554688 C 446.777344 119.230469 446.78125 127.902344 446.777344 136.578125 C 444.179688 136.582031 441.574219 136.578125 438.976563 136.578125 C 438.976563 127.902344 438.976563 119.230469 438.976563 110.554688 "/>
<path style=" stroke:none;fill-rule:evenodd;fill:rgb(100%,100%,100%);fill-opacity:1;" d="M 461.039063 110.890625 C 464.933594 109.988281 469.222656 110.480469 472.703125 112.265625 C 476.089844 113.980469 478.683594 116.867188 479.785156 120.160156 C 480.910156 123.460938 480.523438 127.140625 478.707031 130.195313 C 476.910156 133.261719 473.746094 135.699219 470.019531 136.8125 C 466.34375 137.941406 462.171875 137.789063 458.636719 136.355469 C 455.046875 134.945313 452.128906 132.289063 450.660156 129.101563 C 449.039063 125.660156 449.15625 121.632813 450.976563 118.269531 C 452.878906 114.671875 456.664063 111.894531 461.039063 110.890625 Z M 462.652344 117.253906 C 459.179688 118.128906 456.671875 121.246094 456.949219 124.414063 C 457.105469 127.632813 460.085938 130.511719 463.714844 130.960938 C 467.136719 131.492188 470.761719 129.785156 472.21875 127.03125 C 473.6875 124.425781 473.03125 121.0625 470.65625 119.03125 C 468.625 117.207031 465.429688 116.5 462.652344 117.253906 "/>
</g>
</svg>
